<?xml version="1.0" encoding="UTF-8"?>
<!DOCTYPE svg PUBLIC "-//W3C//DTD SVG 1.1//EN" "http://www.w3.org/Graphics/SVG/1.1/DTD/svg11.dtd">
<!-- Creator: CorelDRAW -->
<svg xmlns="http://www.w3.org/2000/svg" xml:space="preserve" width="27.1872mm" height="27.1872mm" version="1.1" style="shape-rendering:geometricPrecision; text-rendering:geometricPrecision; image-rendering:optimizeQuality; fill-rule:evenodd; clip-rule:evenodd"
viewBox="0 0 170.38 170.38"
 xmlns:xlink="http://www.w3.org/1999/xlink"
 xmlns:xodm="http://www.corel.com/coreldraw/odm/2003">
 <defs>
  <style type="text/css">
   <![CDATA[
    .fil3 {fill:none}
    .fil2 {fill:#32804D}
    .fil0 {fill:#45B97B}
    .fil4 {fill:#57BB6B}
    .fil9 {fill:#7CA540}
    .fil7 {fill:#88BF40}
    .fil8 {fill:#DF4034}
    .fil6 {fill:#EE5249}
    .fil5 {fill:white}
    .fil1 {fill:url(#id1)}
   ]]>
  </style>
    <clipPath id="id0">
     <path d="M85.19 11.54c40.67,0 73.65,32.97 73.65,73.65 0,40.67 -32.97,73.65 -73.65,73.65 -40.67,0 -73.65,-32.97 -73.65,-73.65 0,-40.67 32.97,-73.65 73.65,-73.65z"/>
    </clipPath>
  <radialGradient id="id1" gradientUnits="userSpaceOnUse" gradientTransform="matrix(1 -0 0.0327093 1.23027 -3 -20)" cx="85.19" cy="85.19" r="73.65" fx="85.19" fy="85.19">
   <stop offset="0" style="stop-opacity:1; stop-color:#88BF40"/>
   <stop offset="1" style="stop-opacity:1; stop-color:#248C55"/>
  </radialGradient>
 </defs>
 <g id="Layer_x0020_1">
  <metadata id="CorelCorpID_0Corel-Layer"/>
  <g id="_105553210634208">
   <path class="fil0" d="M85.19 0c47.05,0 85.19,38.14 85.19,85.19 0,47.05 -38.14,85.19 -85.19,85.19 -47.05,0 -85.19,-38.14 -85.19,-85.19 0,-47.05 38.14,-85.19 85.19,-85.19zm0 5c44.28,0 80.18,35.9 80.18,80.18 0,44.28 -35.9,80.18 -80.18,80.18 -44.28,0 -80.18,-35.9 -80.18,-80.18 0,-44.28 35.9,-80.18 80.18,-80.18z"/>
   <path class="fil1" d="M85.19 11.54c40.67,0 73.65,32.97 73.65,73.65 0,40.67 -32.97,73.65 -73.65,73.65 -40.67,0 -73.65,-32.97 -73.65,-73.65 0,-40.67 32.97,-73.65 73.65,-73.65z"/>
   <g style="clip-path:url(#id0)">
    <g>
     <path id="_1" class="fil2" d="M92.9 29.63l4.12 8.55c0.13,0.05 0.27,0.11 0.4,0.16l-2.1 -4.36 1.06 -3.27c1.22,0.03 4.94,1.7 6.01,2.24 7.23,3.64 12.92,7.62 18.12,14.01 1.26,1.54 2.27,2.95 3.4,4.63 0.7,1.04 2.55,4.15 3.85,6.86l0.01 0.03c0.02,0.03 0.03,0.07 0.05,0.1l30.33 63.01c0.79,1.64 1.38,3.14 1.4,3.95 -1.25,0.29 -2.07,0.81 -3.26,1.09l-4.22 -8.77c-2.37,-3.96 -4.99,-6.99 -8.25,-9.98l7.72 16.04c4.33,8.99 5.63,20.1 3.1,30.15 -0.55,2.2 -1.15,4.11 -1.95,6.09 -2.58,6.42 -4.06,7.15 -5.74,10.33 -0.67,-0.36 -0.89,-0.7 -1.52,-0.87 -0.53,0.39 -1.18,1.43 -1.69,2.01 -0.29,0.33 -1.59,1.75 -1.79,1.9 0.01,4.78 -0.02,9.56 0,14.33 0.03,4.53 -2.79,7.52 -6.5,7.61 -4.66,0.11 -9.44,-0.03 -14.13,-0 -2.96,0.02 -5.34,-1.45 -6.46,-3.78l-1.53 -3.17c-5.47,-0.01 -9.62,-0.13 -14.06,-1.39 -6,-1.71 -11.73,-4.4 -16.4,-8.13l-0.32 -0.32 2.96 6.15c-0.24,1.05 -1.23,2.3 -1.74,3.26 -1.87,-1.25 -3.7,-2.4 -5.48,-3.86 -3.18,-2.62 -4.89,-4.19 -7.7,-7.5 -1.73,-2.04 -5.47,-7.59 -7.46,-11.71l-30.39 -63.14c-0.77,-1.6 -1.27,-2.98 -1.29,-3.86 1.25,-0.29 2.07,-0.81 3.26,-1.09l3.87 8.05c2.47,4.19 5.16,7.57 8.58,10.73l-7.66 -15.91c-0.07,-0.14 -0.13,-0.28 -0.2,-0.42 -0.04,-0.09 -0.09,-0.19 -0.13,-0.28 -5.03,-10.96 -5.52,-24.13 -0.87,-35.69 2.58,-6.42 4.06,-7.15 5.74,-10.33 0.67,0.36 0.89,0.7 1.52,0.87 0.53,-0.39 1.18,-1.43 1.69,-2.01 0.29,-0.33 1.59,-1.75 1.79,-1.9 -0.02,-4.78 0.02,-9.56 -0,-14.33 -0.02,-4.07 2.27,-7.51 6.51,-7.61 4.66,-0.11 9.45,0.03 14.13,0 2.49,-0.01 3.9,0.75 5.16,2 0.53,0.53 0.99,1.14 1.34,1.86l1.49 3.09c2.51,-0.01 5.01,-0.02 7.23,0.2 1.96,0.19 3.88,0.5 5.76,0.94l-1.93 -4.01c-0.15,-0.31 0.47,-2.61 0.49,-3.42 0.99,0.23 2.92,0.5 3.69,0.87z"/>
    </g>
   </g>
   <path class="fil3" d="M85.19 11.54c40.67,0 73.65,32.97 73.65,73.65 0,40.67 -32.97,73.65 -73.65,73.65 -40.67,0 -73.65,-32.97 -73.65,-73.65 0,-40.67 32.97,-73.65 73.65,-73.65z"/>
   <g>
    <path class="fil4" d="M66.42 46.43l-0 33.79c0.02,3.36 -0.87,3.28 -4.55,6.96 -4.77,4.78 -3.11,5.34 -11.97,-3.69 -1.25,-1.28 -0.85,-2.63 -0.85,-4.79l-0 -17.11c-0.78,0.8 -2.84,5.11 -3.03,6.51l1.47 0.55c-0.61,3.52 -1.58,4.06 -1.87,9.83 -0.18,3.56 0.2,7.29 1.1,10.58 1.47,5.39 4.65,11.6 8.54,15.12 0.56,0.51 0.75,0.8 1.36,1.46 0.52,0.56 1.08,0.88 1.66,1.38 2.98,2.6 7.33,4.98 11.34,6.24 8.97,2.83 12.92,1.53 20.69,0.29l0.42 1.4c1.11,0.2 2.38,-0.63 3.47,-0.95l0 -33.79c-0.02,-3.35 0.74,-3.15 4.55,-6.96 0.96,-0.96 1.83,-1.92 2.82,-2.83 1.56,-1.42 2.65,0.01 3.5,0.87 7.95,8.02 6.5,4.28 6.5,16.08 0,3.82 -0.01,7.63 0,11.45 0.83,-0.84 2.79,-5.04 3.05,-6.5l-1.49 -0.55c0.72,-3.55 1.66,-5.72 1.86,-9.82 0.32,-6.49 -1.3,-13.51 -4.5,-18.91 -3.15,-5.33 -6.61,-8.83 -11.55,-12.12 -2.18,-1.45 -5.08,-2.9 -7.95,-3.78 -3.19,-0.98 -6.41,-1.6 -10.04,-1.67 -4.49,-0.09 -6.69,0.74 -10.66,1.38l-0.42 -1.42c-1.06,-0.16 -2.37,0.64 -3.48,0.98z"/>
    <path class="fil5" d="M49.05 50.04l-0 11.55 0 17.11c0,2.17 -0.4,3.51 0.85,4.79 8.86,9.03 7.2,8.47 11.97,3.69 3.68,-3.68 4.56,-3.6 4.55,-6.96l0 -33.79 0.01 -7.39c-0.06,-3.25 -0.45,-6.15 2.2,-7.21 2.53,-1.02 5.12,1.23 4.64,3.76l-3.78 0.81 0.43 1.7 0.35 1.61c5.51,-0.86 8.91,-1.59 14.82,-0.9 4.74,0.55 8.46,1.73 12.39,3.42 14.95,6.44 25.01,22.41 24.52,39.3 -0.19,6.51 -2.06,13.45 -5.19,18.88 -0.5,0.87 -0.9,1.57 -1.46,2.45 -0.5,0.78 -1.23,1.61 -1.56,2.32 0.54,0.58 1,0.69 1.29,1.3 0.63,0.17 0.85,0.51 1.52,0.87 1.68,-3.18 3.16,-3.91 5.74,-10.33 0.79,-1.98 1.39,-3.88 1.95,-6.09 2.85,-11.33 0.83,-24.02 -4.9,-33.48 -2.35,-3.88 -3.24,-4.84 -5.89,-8.01 -0.35,-0.42 -0.68,-0.71 -1.08,-1.1 -3.05,-3.04 -5.5,-4.87 -9.19,-7.1 -5.46,-3.31 -11.69,-5.37 -18.31,-6 -2.46,-0.24 -5.27,-0.2 -8.05,-0.2 0,-2.25 -0.85,-3.8 -2,-4.95 -1.26,-1.26 -2.67,-2.02 -5.16,-2 -4.68,0.03 -9.47,-0.11 -14.13,-0 -4.24,0.1 -6.53,3.53 -6.51,7.61 0.03,4.78 -0.01,9.55 0,14.33z"/>
    <path class="fil5" d="M111.57 110.4l0 -11.57c-0.02,-3.82 -0,-7.63 -0,-11.45 0,-11.8 1.45,-8.06 -6.5,-16.08 -0.85,-0.86 -1.94,-2.29 -3.5,-0.87 -0.99,0.9 -1.86,1.87 -2.82,2.83 -3.82,3.81 -4.57,3.61 -4.55,6.96l-0 33.79 -0.01 7.4c0.06,3.26 0.43,6.12 -2.2,7.19 -2.5,1.02 -5.12,-1.21 -4.63,-3.75l3.78 -0.81 -0.43 -1.71 -0.35 -1.61c-5.51,0.85 -8.88,1.58 -14.79,0.9 -26.6,-3.05 -43.8,-30.24 -34.3,-56.12 2.31,-6.29 4.73,-8.46 5.58,-10.26 -0.54,-0.61 -0.99,-0.7 -1.29,-1.3 -0.63,-0.17 -0.85,-0.51 -1.52,-0.87 -1.68,3.18 -3.16,3.91 -5.74,10.33 -5.96,14.83 -3.47,32.31 6.2,44.36 0.29,0.36 0.57,0.77 0.83,1.12l7.14 6.97c4.67,3.73 10.4,6.42 16.4,8.13 4.66,1.33 9,1.39 14.89,1.39 0,4.09 3.02,6.98 7.16,6.95 4.68,-0.03 9.46,0.11 14.13,0 3.71,-0.08 6.53,-3.07 6.5,-7.61 -0.03,-4.78 0.01,-9.56 -0,-14.33z"/>
    <path class="fil6" d="M57.73 86.34c1.08,-0.63 2.88,-2.74 3.9,-3.74 1.84,-1.82 1.31,-1.41 1.31,-6.29l0 -30.4c0,-4.38 -0.67,-10.63 0.88,-14.32 -10.08,-0.15 -11.3,-1 -11.3,6.5l0 39.95c-0,2.33 -0.34,2.93 0.65,3.91 1.06,1.04 3.53,3.76 4.56,4.38z"/>
    <path class="fil7" d="M96.8 128.84l7.17 0.01c2.78,0 4.13,-1.35 4.13,-4.12l0 -44.73c0,-1.31 -0.78,-1.61 -2.29,-3.14 -0.88,-0.89 -1.9,-2.17 -2.92,-2.77 -1.06,0.64 -2.88,2.74 -3.89,3.75 -1.84,1.83 -1.32,1.45 -1.32,6.28l0 30.4c0,4.41 0.66,10.62 -0.88,14.32z"/>
    <path class="fil4" d="M66.43 39.04l-0.01 7.39c1.1,-0.34 2.41,-1.13 3.48,-0.98l-0.49 -1.9c8.38,-1.74 14.23,-2.43 22.55,0.27 3.34,1.08 6.09,2.47 8.73,4.09 12.94,7.9 20.22,23.98 17.1,39.81 -0.37,1.86 -1.04,3.58 -1.35,5.2l-1.8 -0.58c-0.26,1.46 -2.22,5.66 -3.05,6.5l-0 11.57c0.2,-0.15 1.5,-1.57 1.79,-1.9 0.51,-0.58 1.15,-1.62 1.69,-2.01 -0.29,-0.61 -0.75,-0.72 -1.29,-1.3 0.34,-0.71 1.07,-1.55 1.56,-2.32 0.56,-0.88 0.96,-1.58 1.46,-2.45 3.12,-5.43 5,-12.37 5.19,-18.88 0.49,-16.89 -9.57,-32.86 -24.52,-39.3 -3.92,-1.69 -7.64,-2.87 -12.39,-3.42 -5.91,-0.69 -9.31,0.04 -14.82,0.9l-0.35 -1.61 -3.48 0.95z"/>
    <path class="fil4" d="M45.57 53.95c0.3,0.6 0.75,0.69 1.29,1.3 -0.85,1.79 -3.27,3.97 -5.58,10.26 -9.5,25.88 7.7,53.07 34.3,56.12 5.91,0.68 9.28,-0.05 14.79,-0.9l0.35 1.61 3.48 -0.93 0.01 -7.4c-1.1,0.33 -2.36,1.15 -3.47,0.95l0.45 1.93c-4.15,0.86 -6.89,1.61 -11.52,1.52 -3.91,-0.08 -7.67,-0.72 -11.15,-1.86 -5.88,-1.93 -11.92,-5.64 -15.86,-9.98 -6.9,-7.6 -11.07,-16.93 -10.5,-28.32 0.3,-6.01 1.2,-6.49 2.05,-10.78l1.81 0.62c0.19,-1.4 2.25,-5.7 3.03,-6.51l0 -11.55c-0.2,0.15 -1.5,1.57 -1.79,1.9 -0.51,0.58 -1.15,1.62 -1.69,2.01z"/>
    <path class="fil5" d="M69.89 45.46l0.42 1.42c3.97,-0.64 6.17,-1.47 10.66,-1.38 3.63,0.07 6.85,0.69 10.04,1.67 2.87,0.88 5.77,2.33 7.95,3.78 4.94,3.28 8.4,6.79 11.55,12.12 3.2,5.41 4.82,12.42 4.5,18.91 -0.2,4.1 -1.14,6.28 -1.86,9.82l1.49 0.55 1.8 0.58c0.32,-1.62 0.99,-3.35 1.35,-5.2 3.13,-15.83 -4.15,-31.91 -17.1,-39.81 -2.64,-1.61 -5.39,-3 -8.73,-4.09 -8.32,-2.7 -14.17,-2.01 -22.55,-0.27l0.49 1.9z"/>
    <path class="fil5" d="M90.73 114.96l-0.42 -1.4c-7.77,1.24 -11.72,2.53 -20.69,-0.29 -4.01,-1.26 -8.36,-3.64 -11.34,-6.24 -0.57,-0.5 -1.14,-0.82 -1.66,-1.38 -0.61,-0.66 -0.8,-0.96 -1.36,-1.46 -3.89,-3.52 -7.07,-9.74 -8.54,-15.12 -0.9,-3.29 -1.28,-7.02 -1.1,-10.58 0.28,-5.76 1.26,-6.31 1.87,-9.83l-1.47 -0.55 -1.81 -0.62c-0.86,4.29 -1.75,4.77 -2.05,10.78 -0.57,11.39 3.6,20.72 10.5,28.32 3.94,4.34 9.97,8.05 15.86,9.98 3.48,1.14 7.24,1.79 11.15,1.86 4.62,0.09 7.37,-0.67 11.52,-1.52l-0.45 -1.93z"/>
    <path class="fil5" d="M78.57 68.06c-7.73,0.17 -9.07,9.18 -3.66,12.34 2.22,1.3 6.53,1.43 8.76,2.53 2.97,1.46 2.36,5.98 -1.84,5.98 -5.36,0 -6.73,0.32 -6.73,-5.21l-3.47 0c-0.01,2.7 -0.06,4.72 1.83,6.63 1.27,1.29 2.65,1.99 5.11,2.05l0 3.47 3.47 0 -0 -3.47c7.82,-0.18 9.01,-9.31 3.65,-12.33 -2.37,-1.33 -6.36,-1.42 -8.76,-2.52 -2.83,-1.3 -2.48,-5.99 1.86,-5.99 5.36,0 6.73,-0.32 6.73,5.21l3.48 0c-0.01,-2.7 0.04,-4.71 -1.85,-6.63 -1.28,-1.3 -2.64,-1.99 -5.11,-2.05l0 -3.47 -3.48 0 0.01 3.47z"/>
    <path class="fil5" d="M95.32 33.98c0.74,0.36 1.76,0.62 2.67,0.98 2.71,1.09 5.07,2.25 7.55,3.75 1.58,0.96 2.96,1.86 4.37,3.01 6.03,4.92 10.03,9.18 13.68,16.5 0.72,1.44 1.95,3.72 2.32,5.28 1.19,-0.28 2.01,-0.8 3.26,-1.09 -0.05,-2.15 -4.13,-9.13 -5.25,-10.81 -1.13,-1.69 -2.14,-3.09 -3.4,-4.63 -5.2,-6.39 -10.89,-10.37 -18.12,-14.01 -1.07,-0.54 -4.79,-2.22 -6.01,-2.24l-1.06 3.27z"/>
    <path class="fil5" d="M31.46 98.02c0.07,3.13 6.34,12.74 8.75,15.57 2.81,3.3 4.52,4.88 7.7,7.5 1.78,1.46 3.6,2.6 5.48,3.86 0.51,-0.96 1.49,-2.21 1.74,-3.26 -1.21,-0.64 -2.3,-1.4 -3.41,-2.23 -7.01,-5.23 -11.26,-10.45 -15.33,-18.54 -0.48,-0.94 -1.44,-3.02 -1.66,-3.98 -1.19,0.28 -2.01,0.8 -3.26,1.09z"/>
    <path class="fil8" d="M66.43 39.04l3.48 -0.95 -0.43 -1.7 3.78 -0.81c0.48,-2.53 -2.11,-4.77 -4.64,-3.76 -2.65,1.06 -2.26,3.96 -2.2,7.21z"/>
    <path class="fil9" d="M90.72 122.34l0.43 1.71 -3.78 0.81c-0.48,2.55 2.14,4.77 4.63,3.75 2.63,-1.08 2.26,-3.93 2.2,-7.19l-3.48 0.93z"/>
    <path class="fil5" d="M92.03 33.11c0.21,-0.45 0.82,-2.84 0.87,-3.47 -0.77,-0.37 -2.7,-0.64 -3.69,-0.87 -0.02,0.81 -0.64,3.11 -0.49,3.42 0.17,0.35 2.51,0.74 3.31,0.93z"/>
   </g>
  </g>
 </g>
</svg>
