<?xml version="1.0" encoding="UTF-8"?>
<!DOCTYPE svg PUBLIC "-//W3C//DTD SVG 1.1//EN" "http://www.w3.org/Graphics/SVG/1.1/DTD/svg11.dtd">
<!-- Creator: CorelDRAW -->
<svg xmlns="http://www.w3.org/2000/svg" xml:space="preserve" width="27.1872mm" height="27.1872mm" version="1.1" style="shape-rendering:geometricPrecision; text-rendering:geometricPrecision; image-rendering:optimizeQuality; fill-rule:evenodd; clip-rule:evenodd"
viewBox="0 0 412.12 412.12"
 xmlns:xlink="http://www.w3.org/1999/xlink"
 xmlns:xodm="http://www.corel.com/coreldraw/odm/2003">
 <defs>
  <style type="text/css">
   <![CDATA[
    .fil3 {fill:none}
    .fil2 {fill:#32804D}
    .fil0 {fill:#45B97B}
    .fil4 {fill:#FEFFFE}
    .fil1 {fill:url(#id1)}
   ]]>
  </style>
   <clipPath id="id0">
    <path d="M206.06 27.92c98.39,0 178.15,79.76 178.15,178.15 0,98.39 -79.76,178.15 -178.15,178.15 -98.39,0 -178.15,-79.76 -178.15,-178.15 0,-98.39 79.76,-178.15 178.15,-178.15z"/>
   </clipPath>
  <radialGradient id="id1" gradientUnits="userSpaceOnUse" gradientTransform="matrix(1 -0 0.0327093 1.23027 -7 -47)" cx="206.06" cy="206.06" r="178.15" fx="206.06" fy="206.06">
   <stop offset="0" style="stop-opacity:1; stop-color:#88BF40"/>
   <stop offset="1" style="stop-opacity:1; stop-color:#248C55"/>
  </radialGradient>
 </defs>
 <g id="Layer_x0020_1">
  <metadata id="CorelCorpID_0Corel-Layer"/>
  <path class="fil0" d="M206.06 0c113.8,0 206.06,92.26 206.06,206.06 0,113.8 -92.26,206.06 -206.06,206.06 -113.8,0 -206.06,-92.26 -206.06,-206.06 0,-113.8 92.26,-206.06 206.06,-206.06zm0 12.11c107.12,0 193.96,86.84 193.96,193.96 0,107.12 -86.84,193.96 -193.96,193.96 -107.12,0 -193.96,-86.84 -193.96,-193.96 0,-107.12 86.84,-193.96 193.96,-193.96z"/>
  <path class="fil1" d="M206.06 27.92c98.39,0 178.15,79.76 178.15,178.15 0,98.39 -79.76,178.15 -178.15,178.15 -98.39,0 -178.15,-79.76 -178.15,-178.15 0,-98.39 79.76,-178.15 178.15,-178.15z"/>
  <g style="clip-path:url(#id0)">
   <g id="_105553209806368">
    <path id="_1" class="fil2" d="M239.28 113.24c0.05,-0.08 0.11,-0.17 0.16,-0.25l-11.31 -14.24c17.02,-7.65 27.42,6.32 52.27,5.73l80.74 101.68c0.05,25.74 2.04,24.08 -3.67,25.91 -5.15,1.65 -5.48,3.1 -9.67,5.68 -12.47,7.65 -18.93,-0.06 -30.7,-3.86 -2.91,-0.94 -7.99,-1.41 -13.12,-2.08l25.53 32.15c0.9,1.14 1.61,2.72 2.41,4.09l19.57 32.36c2.23,3.62 6.31,9.34 7.62,13.05l-1.98 -0 4.07 5.12 0 69.94 -184.69 0.2 -80.74 -101.68 0 -70.33 5.43 0.01 -4.06 -5.11 22.14 -39.04c1.51,-2.68 5.56,-11.81 8.38,-11.81l43.33 0 -14.17 -17.84 33.72 -57.08c1.02,-1.69 1.03,-2.15 2.4,-2.52l41.91 24.85c0.77,0.59 0.89,0.67 0.91,0.69l0.2 0.25c0.05,0.05 0.1,0.1 0.16,0.16l3.15 3.97z"/>
   </g>
  </g>
  <path class="fil3" d="M206.06 27.92c98.39,0 178.15,79.76 178.15,178.15 0,98.39 -79.76,178.15 -178.15,178.15 -98.39,0 -178.15,-79.76 -178.15,-178.15 0,-98.39 79.76,-178.15 178.15,-178.15z"/>
  <g id="_105553209817472">
   <path class="fil4" d="M216.88 184c3.52,0 4.74,-0.18 4.35,3.51 -1.85,1.22 -1.11,1.02 -3.62,1.02l-59.23 0c-5.95,0 -6.57,-4.53 0,-4.53l58.5 0zm-119.73 27.59l181.22 0.18c-1.31,-3.71 -5.4,-9.43 -7.62,-13.05l-19.57 -32.36c-1.43,-2.45 -2.58,-5.61 -5.06,-5.61l-33.64 0c-3.02,0 -7.17,11.75 -10.48,13.98 -6.32,-0.74 -20.52,-13.98 -27.55,-13.98l-46.8 0c-2.82,0 -6.87,9.13 -8.38,11.81l-22.14 39.04z"/>
   <polygon class="fil4" points="112.14,270.49 260.75,270.49 263.52,270.31 263.51,233.48 260.75,233.2 111.58,233.24 "/>
   <path class="fil4" d="M107.61 233.58c0,-4.29 0.59,-4.83 4.7,-4.83l151.36 0c3.86,0 4.36,0.07 4.36,4.1 0.02,9.99 0.93,33.38 -0.55,41.82l-2.35 0.35c-17.47,0 -151.7,1.08 -157.13,-0.71 -0.86,-9.17 -0.39,-30.36 -0.39,-40.73zm172.85 53.25l0 -69.94 -184.69 -0.19 0 70.33 184.69 -0.2z"/>
   <path class="fil4" d="M213.62 147.63l7.5 -13.31c-8.98,-1.19 -23.21,-4.16 -17.8,-15.91 3.9,-8.46 20.01,-3.24 29.82,-3.71l2.98 -5.43c-0.88,-0.87 0.34,0.13 -1.27,-1.11l-41.91 -24.85c-1.37,0.37 -1.37,0.83 -2.4,2.52l-33.72 57.08c0.52,0.62 0.27,0.43 1.13,1.14 4.08,3.35 42,24.81 43.03,25.24l12.64 -21.65z"/>
   <path class="fil4" d="M228.13 98.74c4.29,3.04 9.5,5.42 13.47,8.3 0.03,3.95 -1.84,4.81 -3.27,7.89 5.2,0.88 16.85,-1.68 18.95,-0.74 4.14,8.52 -27.99,4.89 -33.64,4.43 -4.85,-0.39 -15.13,-2.16 -16.59,2.76 -2.71,9.19 21.37,8.24 29.31,10.81 11.77,3.81 18.23,11.52 30.7,3.86 4.19,-2.57 4.51,-4.02 9.67,-5.68 5.71,-1.83 3.71,-0.18 3.67,-25.91 -24.85,0.59 -35.24,-13.38 -52.27,-5.73z"/>
  </g>
 </g>
</svg>
