<svg width="37" height="37" viewBox="0 0 37 37" fill="none" xmlns="http://www.w3.org/2000/svg">
<circle cx="18.5" cy="18.5" r="18.5" fill="#D1FADF"/>
<path opacity="0.4" d="M18 29C23.5228 29 28 24.5228 28 19C28 13.4772 23.5228 9 18 9C12.4772 9 8 13.4772 8 19C8 24.5228 12.4772 29 18 29Z" fill="#039855"/>
<path d="M19.06 19.0004L21.36 16.7004C21.65 16.4104 21.65 15.9304 21.36 15.6404C21.07 15.3504 20.59 15.3504 20.3 15.6404L18 17.9404L15.7 15.6404C15.41 15.3504 14.93 15.3504 14.64 15.6404C14.35 15.9304 14.35 16.4104 14.64 16.7004L16.94 19.0004L14.64 21.3004C14.35 21.5904 14.35 22.0704 14.64 22.3604C14.79 22.5104 14.98 22.5804 15.17 22.5804C15.36 22.5804 15.55 22.5104 15.7 22.3604L18 20.0604L20.3 22.3604C20.45 22.5104 20.64 22.5804 20.83 22.5804C21.02 22.5804 21.21 22.5104 21.36 22.3604C21.65 22.0704 21.65 21.5904 21.36 21.3004L19.06 19.0004Z" fill="#039855"/>
</svg>
