<?xml version="1.0" encoding="UTF-8"?>
<!DOCTYPE svg PUBLIC "-//W3C//DTD SVG 1.1//EN" "http://www.w3.org/Graphics/SVG/1.1/DTD/svg11.dtd">
<!-- Creator: CorelDRAW -->
<svg xmlns="http://www.w3.org/2000/svg" xml:space="preserve" width="27.1872mm" height="27.1872mm" version="1.1" style="shape-rendering:geometricPrecision; text-rendering:geometricPrecision; image-rendering:optimizeQuality; fill-rule:evenodd; clip-rule:evenodd"
viewBox="0 0 578.85 578.85"
 xmlns:xlink="http://www.w3.org/1999/xlink"
 xmlns:xodm="http://www.corel.com/coreldraw/odm/2003">
 <defs>
  <style type="text/css">
   <![CDATA[
    .fil3 {fill:none}
    .fil2 {fill:#32804D}
    .fil0 {fill:#45B97B}
    .fil4 {fill:white}
    .fil1 {fill:url(#id1)}
   ]]>
  </style>
   <clipPath id="id0">
    <path d="M289.43 39.21c138.19,0 250.22,112.02 250.22,250.22 0,138.19 -112.02,250.22 -250.22,250.22 -138.19,0 -250.22,-112.02 -250.22,-250.22 0,-138.19 112.02,-250.22 250.22,-250.22z"/>
   </clipPath>
  <radialGradient id="id1" gradientUnits="userSpaceOnUse" gradientTransform="matrix(1 -0 0.0327093 1.23027 -9 -67)" cx="289.43" cy="289.43" r="250.22" fx="289.43" fy="289.43">
   <stop offset="0" style="stop-opacity:1; stop-color:#88BF40"/>
   <stop offset="1" style="stop-opacity:1; stop-color:#248C55"/>
  </radialGradient>
 </defs>
 <g id="Layer_x0020_1">
  <metadata id="CorelCorpID_0Corel-Layer"/>
  <path class="fil0" d="M289.43 0c159.84,0 289.43,129.58 289.43,289.43 0,159.84 -129.58,289.43 -289.43,289.43 -159.84,0 -289.43,-129.58 -289.43,-289.43 0,-159.84 129.58,-289.43 289.43,-289.43zm0 17c150.46,0 272.42,121.97 272.42,272.42 0,150.46 -121.97,272.42 -272.42,272.42 -150.46,0 -272.42,-121.97 -272.42,-272.42 0,-150.46 121.97,-272.42 272.42,-272.42z"/>
  <path class="fil1" d="M289.43 39.21c138.19,0 250.22,112.02 250.22,250.22 0,138.19 -112.02,250.22 -250.22,250.22 -138.19,0 -250.22,-112.02 -250.22,-250.22 0,-138.19 112.02,-250.22 250.22,-250.22z"/>
  <g style="clip-path:url(#id0)">
   <g id="_105553209641248">
    <path id="_1" class="fil2" d="M163.64 241.42l0 150.11 106.54 153.49 221.84 0 0 -31.54 -10.94 -15.77 26.71 0 0 -68.34 -15.77 -22.72 0 -24.59 -22.13 -31.89 -0.99 -5.43 -106.54 -153.49c-2.73,0.06 -7.87,1.48 -10.51,2.1 -27.4,6.48 -55.78,12.6 -83.84,18.78l-62.3 -89.75c-16.85,0 -34.98,6.04 -47.44,17.22l-8.68 8.66c-5.99,6.36 -12.86,19.75 -15.06,28.57 -1.04,4.17 -2.41,10.15 -2.41,14.94l0 4.21 31.54 45.44z"/>
   </g>
  </g>
  <path class="fil3" d="M289.43 39.21c138.19,0 250.22,112.02 250.22,250.22 0,138.19 -112.02,250.22 -250.22,250.22 -138.19,0 -250.22,-112.02 -250.22,-250.22 0,-138.19 112.02,-250.22 250.22,-250.22z"/>
  <g id="_105553209647360">
   <path class="fil4" d="M349.73 210.69l3.16 17.87 -83.58 0c1.63,-1.03 77.01,-17.87 80.43,-17.87zm-156.65 17.87l-29.44 0 0 162.96 221.84 0 0 -31.54 -103.04 0c-20.72,0 -34.17,-13.45 -34.17,-34.17l0 -31.54c0,-20.72 13.45,-34.17 34.17,-34.17l103.04 0 0 -31.54 -16.3 0c-0.21,-2.49 -1.15,-6.59 -1.71,-9.33l-5.13 -27.99c-2.73,0.06 -7.87,1.48 -10.51,2.1 -37.93,8.97 -77.71,17.24 -115.97,25.96 -3.45,0.79 -40.17,9.26 -42.78,9.26z"/>
   <path class="fil4" d="M287.7 310.57c-0.25,-1.64 0.93,-5.38 3,-7.52 1.92,-1.98 3.88,-3.2 7.09,-3.38 13.24,-0.76 14.82,19.94 0.85,20.74 -3.1,0.18 -5.66,-1.16 -7.41,-2.86 -1.02,-0.99 -1.69,-1.58 -2.33,-2.93 -0.3,-0.65 -1.12,-3.57 -1.19,-4.06zm-23.65 -20.5l0 39.95c0,6.7 7.5,14.19 14.19,14.19l123.01 0 0 -68.34 -123.01 0c-6.7,0 -14.19,7.5 -14.19,14.19z"/>
   <path class="fil4" d="M132.1 191.77l0 4.21 15.77 0c0.29,-12.81 5.15,-27.57 13.54,-36.93l7.09 -7.1c1.2,-1.13 2.79,-2.24 4.18,-3.18 7.85,-5.32 16.61,-9.06 26.27,-10.01 2.19,-0.22 5.11,-0.57 6.75,-0.61l0 -15.77c-16.85,0 -34.98,6.04 -47.44,17.22l-8.68 8.67c-5.99,6.36 -12.86,19.75 -15.06,28.57 -1.04,4.17 -2.41,10.15 -2.41,14.94z"/>
   <path class="fil4" d="M163.64 193.87l0 2.1 15.77 0c0.32,-14.37 11.91,-25.96 26.28,-26.28l0 -15.77c-23.48,0 -42.05,19.51 -42.05,39.95z"/>
   <path class="fil4" d="M195.18 195.45c0,14.78 21.03,14.78 21.03,0 0,-13.26 -21.03,-13.26 -21.03,0z"/>
  </g>
 </g>
</svg>
