<?xml version="1.0" encoding="UTF-8"?>
<!DOCTYPE svg PUBLIC "-//W3C//DTD SVG 1.1//EN" "http://www.w3.org/Graphics/SVG/1.1/DTD/svg11.dtd">
<!-- Creator: CorelDRAW -->
<svg xmlns="http://www.w3.org/2000/svg" xml:space="preserve" width="27.1872mm" height="27.1872mm" version="1.1" style="shape-rendering:geometricPrecision; text-rendering:geometricPrecision; image-rendering:optimizeQuality; fill-rule:evenodd; clip-rule:evenodd"
viewBox="0 0 418.81 418.81"
 xmlns:xlink="http://www.w3.org/1999/xlink"
 xmlns:xodm="http://www.corel.com/coreldraw/odm/2003">
 <defs>
  <style type="text/css">
   <![CDATA[
    .fil3 {fill:none}
    .fil2 {fill:#32804D}
    .fil0 {fill:#45B97B}
    .fil4 {fill:#FFFEFE}
    .fil1 {fill:url(#id1)}
   ]]>
  </style>
   <clipPath id="id0">
    <path d="M209.4 28.37c99.98,0 181.03,81.05 181.03,181.03 0,99.98 -81.05,181.03 -181.03,181.03 -99.98,0 -181.03,-81.05 -181.03,-181.03 0,-99.98 81.05,-181.03 181.03,-181.03z"/>
   </clipPath>
  <radialGradient id="id1" gradientUnits="userSpaceOnUse" gradientTransform="matrix(1 -0 0.0327093 1.23027 -7 -48)" cx="209.4" cy="209.4" r="181.03" fx="209.4" fy="209.4">
   <stop offset="0" style="stop-opacity:1; stop-color:#88BF40"/>
   <stop offset="1" style="stop-opacity:1; stop-color:#248C55"/>
  </radialGradient>
 </defs>
 <g id="Layer_x0020_1">
  <metadata id="CorelCorpID_0Corel-Layer"/>
  <path class="fil0" d="M209.4 0c115.65,0 209.4,93.75 209.4,209.4 0,115.65 -93.75,209.4 -209.4,209.4 -115.65,0 -209.4,-93.75 -209.4,-209.4 0,-115.65 93.75,-209.4 209.4,-209.4zm0 12.3c108.86,0 197.1,88.24 197.1,197.1 0,108.86 -88.24,197.1 -197.1,197.1 -108.86,0 -197.1,-88.24 -197.1,-197.1 0,-108.86 88.24,-197.1 197.1,-197.1z"/>
  <path class="fil1" d="M209.4 28.37c99.98,0 181.03,81.05 181.03,181.03 0,99.98 -81.05,181.03 -181.03,181.03 -99.98,0 -181.03,-81.05 -181.03,-181.03 0,-99.98 81.05,-181.03 181.03,-181.03z"/>
  <g style="clip-path:url(#id0)">
   <g id="_105553209835232">
    <path id="_1" class="fil2" d="M233.62 342.13l30.85 49.02c1.11,1.76 -0,3.92 -3.11,4.19l-33.62 -0.24c-7.38,-0.91 -12.64,-4.63 -15.94,-9.87l-7.58 -12.05c-1.1,1.1 -2.34,1.96 -4.28,1.88 -0.78,-0.49 -1.3,-0.98 -1.61,-1.46l-70.2 -111.56c-1.53,-2.44 2.14,-4.83 3.89,-6.58 5.42,-5.42 6.8,-7.94 9.15,-6.93l-24.68 -39.22c-0.33,-0.53 -0.62,-1.06 -0.85,-1.59 -1.93,-4.45 4.55,-17.05 6.46,-20.45 3.79,-6.78 7.97,-10.99 13.04,-14.97 2.43,-1.9 5.46,-4 8.8,-5.46 3,-1.31 4.11,-1.79 5.33,-1.67l-8.61 -13.68c-0.01,-0.02 -0.03,-0.04 -0.04,-0.06 -1.38,-2.19 -2.53,-4.94 -3.07,-8.45 -3.27,-21.36 20.34,-35.35 37.23,-23.53 4.8,3.36 3.23,2.19 5.97,6.03l0.23 0.32 0.72 0.87 51.99 82.63c0.47,-4.23 2.16,-8.49 5.34,-12.37l-34.9 -55.46c-1.01,-2.33 -1.04,-2.33 -0.15,-4.81 4.29,-1.18 26.51,-0.58 32.82,-0.51 5.11,0.06 9.5,1.37 13.08,3.63 2.06,1.3 2.85,2.1 4.33,3.66 1.53,1.62 2.54,3.75 3.93,4.74l6.03 9.58c0.61,-0.54 1.35,-1 2.46,-1.38 1.46,0.02 2.39,0.36 2.88,1.13l70.2 111.56c0.38,0.6 0.48,1.45 0.35,2.62 -1.21,2.48 -4.26,4.94 -6.27,6.95 -0.88,0.88 -2.15,2.57 -3.65,3.6l17.87 28.4c5.3,8.42 4.84,20.17 -1.77,28.2l19.69 31.29c1.74,2.77 3.33,5.93 4.92,9.82 2.98,7.31 4.7,10.49 -0.43,15.87 -12.14,12.73 -27.05,20.82 -47.17,19.22 -14.26,-1.13 -21.33,-5.86 -31.62,-12.64 -3.1,-3.87 -6.59,-5.47 -8.37,-8.29l-34.37 -54.62c-4.94,1.55 -10.12,2.42 -15.29,2.65z"/>
   </g>
  </g>
  <path class="fil3" d="M209.4 28.37c99.98,0 181.03,81.05 181.03,181.03 0,99.98 -81.05,181.03 -181.03,181.03 -99.98,0 -181.03,-81.05 -181.03,-181.03 0,-99.98 81.05,-181.03 181.03,-181.03z"/>
  <g id="_105553209830944">
   <path class="fil4" d="M130.02 221.3c15.38,11.77 42.1,12.69 60.54,1.28 5.17,-3.2 10.54,-7.5 14.2,-12.07 2.64,-3.3 3.12,-4.23 1.49,-9.39 -3.38,-10.73 -6.97,-17.24 -14.65,-24.77 -1.22,-1.2 -1.71,-2.04 -3.14,-3.13 -20.56,-15.67 -15.43,-2.03 -34.1,-6.44 -5.83,-1.9 -4.67,-2.44 -10.41,0.07 -3.34,1.46 -6.38,3.56 -8.8,5.46 -5.08,3.98 -9.26,8.18 -13.04,14.97 -1.9,3.41 -8.39,16 -6.46,20.45 2.64,6.06 12.21,11.67 14.38,13.58z"/>
   <path class="fil4" d="M221.45 290.84c10.29,6.77 17.36,11.51 31.62,12.64 20.11,1.6 35.03,-6.49 47.17,-19.22 5.13,-5.38 3.42,-8.56 0.43,-15.87 -4.68,-11.47 -9.41,-16.68 -17.9,-23.8 -0.13,-0.11 -0.52,-0.45 -0.64,-0.57 -0.55,-0.54 -0.46,-0.47 -0.92,-1.04 -2.81,-0.74 -8.42,-5.44 -12.23,-4.86 -3.7,0.57 -6.58,3.28 -15.52,2.03 -7.61,-1.06 -5.72,-3.93 -13.51,-0.19 -11.38,5.45 -19.97,15 -25.32,27.84 -6.91,16.58 0.72,15.43 6.81,23.03z"/>
   <path class="fil4" d="M245.52 191.1c-1.86,1.93 -3.8,2.8 -5.63,4.83 -16.81,18.62 2.63,47.07 25.93,38.51 18.99,-6.98 20.33,-31.85 5.94,-41.7 -7.91,-5.41 -8.96,-3.58 -18.56,-4.71l-7.67 3.06z"/>
   <path class="fil4" d="M148.71 159.78c5.98,1.39 7.08,4.04 15.8,2.93 5.6,-0.71 10.56,-3.74 13.42,-6.47 7.9,-7.53 8.97,-17.86 3.77,-29.58l-0.72 -0.87c-0.06,-0.08 -0.17,-0.23 -0.23,-0.32 -2.73,-3.84 -1.17,-2.67 -5.97,-6.03 -16.89,-11.82 -40.5,2.17 -37.23,23.53 1.69,11.06 9.5,14.56 11.16,16.81z"/>
   <path class="fil4" d="M206.64 142.01c8.79,-0.04 25.49,-0.93 33.42,0.24 7.86,1.16 16.15,9.34 14.32,18.92 -2.08,-2.52 -4.16,-5.78 -8.59,-4.45 -1.71,4.22 1.62,6.01 3.67,8.05 1.23,1.23 5.66,5.95 6.75,6.45 3.14,1.44 5.85,-2.59 7.4,-4.15 2.01,-2.01 5.07,-4.47 6.27,-6.95 0.3,-2.67 -0.65,-3.72 -3.23,-3.75 -3.09,1.04 -3.25,2.78 -6.08,4.78 -0.02,-2.65 -0.09,-4.97 -0.66,-7.37 -0.53,-2.23 -1.44,-3.64 -1.75,-5.61 -1.39,-0.99 -2.4,-3.12 -3.93,-4.74 -1.48,-1.56 -2.26,-2.36 -4.33,-3.66 -3.58,-2.25 -7.96,-3.57 -13.08,-3.63 -6.31,-0.07 -28.54,-0.67 -32.82,0.51 -0.89,2.48 -0.86,2.49 0.15,4.81l2.5 0.55z"/>
   <path class="fil4" d="M129.74 263.51c3.81,0.17 4.89,-3.32 7.62,-5.05 0.34,12.46 6.74,23.43 20.17,25.09l33.62 0.24c4.22,-0.37 4.76,-4.19 1.08,-5.82 -2.81,-0.06 -31.59,0.54 -33.86,-0.66 -6.91,0.78 -15.09,-7.01 -15.03,-18.58 1.44,0.71 9.61,10.57 9.47,0.83 -14.64,-14.24 -10.65,-14.22 -20.78,-4.1 -2.11,2.11 -6.97,5.13 -2.29,8.05z"/>
  </g>
 </g>
</svg>
