<?xml version="1.0" encoding="UTF-8"?>
<!DOCTYPE svg PUBLIC "-//W3C//DTD SVG 1.1//EN" "http://www.w3.org/Graphics/SVG/1.1/DTD/svg11.dtd">
<!-- Creator: CorelDRAW -->
<svg xmlns="http://www.w3.org/2000/svg" xml:space="preserve" width="27.1872mm" height="27.1872mm" version="1.1" style="shape-rendering:geometricPrecision; text-rendering:geometricPrecision; image-rendering:optimizeQuality; fill-rule:evenodd; clip-rule:evenodd"
viewBox="0 0 171.13 171.13"
 xmlns:xlink="http://www.w3.org/1999/xlink"
 xmlns:xodm="http://www.corel.com/coreldraw/odm/2003">
 <defs>
  <style type="text/css">
   <![CDATA[
    .fil3 {fill:none}
    .fil2 {fill:#32804D}
    .fil0 {fill:#45B97B}
    .fil4 {fill:white}
    .fil1 {fill:url(#id1)}
   ]]>
  </style>
   <clipPath id="id0">
    <path d="M85.57 11.59c40.86,0 73.97,33.12 73.97,73.97 0,40.86 -33.12,73.97 -73.97,73.97 -40.86,0 -73.97,-33.12 -73.97,-73.97 0,-40.86 33.12,-73.97 73.97,-73.97z"/>
   </clipPath>
  <radialGradient id="id1" gradientUnits="userSpaceOnUse" gradientTransform="matrix(1 -0 0.0327093 1.23027 -3 -20)" cx="85.57" cy="85.57" r="73.97" fx="85.57" fy="85.57">
   <stop offset="0" style="stop-opacity:1; stop-color:#88BF40"/>
   <stop offset="1" style="stop-opacity:1; stop-color:#248C55"/>
  </radialGradient>
 </defs>
 <g id="Layer_x0020_1">
  <metadata id="CorelCorpID_0Corel-Layer"/>
  <path class="fil0" d="M85.57 0c47.26,0 85.57,38.31 85.57,85.57 0,47.26 -38.31,85.57 -85.57,85.57 -47.26,0 -85.57,-38.31 -85.57,-85.57 0,-47.26 38.31,-85.57 85.57,-85.57zm0 5.03c44.48,0 80.54,36.06 80.54,80.54 0,44.48 -36.06,80.54 -80.54,80.54 -44.48,0 -80.54,-36.06 -80.54,-80.54 0,-44.48 36.06,-80.54 80.54,-80.54z"/>
  <path class="fil1" d="M85.57 11.59c40.86,0 73.97,33.12 73.97,73.97 0,40.86 -33.12,73.97 -73.97,73.97 -40.86,0 -73.97,-33.12 -73.97,-73.97 0,-40.86 33.12,-73.97 73.97,-73.97z"/>
  <g style="clip-path:url(#id0)">
   <g id="_105553210386528">
    <path id="_1" class="fil2" d="M121.59 49.6c0,2.1 -0.23,3.5 0.21,4.19l31.48 50.03c0.22,0.35 0.6,0.52 1.25,0.52 1.5,0 1.14,-2.96 1.14,-4.22 0,-0.44 -0.1,-0.79 -0.27,-1.05l-31.48 -50.03c-0.66,-1.05 -2.33,-0.68 -2.33,0.56zm-63.53 2.24l1.34 2.13c-1.5,0 -3.02,0.28 -4.51,0.81l-3.84 -6.1c-0.61,-0.97 -2.4,-0.63 -2.4,0.92 0,1.53 -0.29,3.82 0.36,4.84l1.7 2.7c-1.98,1.72 -3.57,4.48 -4.16,7.09 -0.64,2.81 -0.1,5.61 0.92,8 0.2,0.47 0.54,1.07 0.85,1.56l15.77 25.07 -12.7 2.21c-1.23,0.2 -2.58,0.25 -2.58,1.65l0 18.84c0,0.11 0.06,0.31 0.19,0.51l31.48 50.03c0.2,0.31 0.55,0.63 1.11,0.63 1.7,0 5.9,-1.95 9.42,-1.95 3.03,0 11.89,2.61 15.37,3.48l5.1 1.23 10.4 0c0.7,0 3.78,-1.81 4.6,-2.22 0.84,-0.41 1.41,-0.79 2.22,-1.19 5.05,-2.51 10.96,-5.98 15.92,-8.45l9.1 -4.87c2.82,-1.86 3.32,-5.34 1.7,-7.91l-27.59 -43.85c0.38,-1.23 0.85,-2.7 1.3,-4.14l9.94 15.79c0.38,0.61 0.85,1.18 1.4,1.69 3.79,3.52 9,3.58 12.96,0.12 3.21,-2.8 3.86,-8.04 1.44,-11.89l-6.67 -10.6c-0,-0.1 -0,-0.2 -0,-0.29 0,-0.29 -0.07,-0.53 -0.2,-0.73l-31.48 -50.03c-0.61,-0.96 -2.4,-0.79 -2.4,0.56 0,1.51 -0.27,3.43 0.29,4.32l1.5 2.39c-1.07,-0.04 -2.14,0.1 -3.16,0.42l-3.55 -5.63c-0.61,-0.97 -2.4,-0.51 -2.4,0.46 0,2 -0.26,3.6 0.23,4.37l1.95 3.11c-0.61,0.63 -1.23,1.37 -1.72,2.24l-8.1 -12.87c-0.4,-0.63 -1.42,-0.92 -2.11,-0.1 -2.77,3.31 -11.22,3.67 -14.94,0.82 -1.23,-0.94 -0.68,-1.3 -2.27,-1.3 -0.46,0 -0.97,0.68 -0.97,1.14 0,0.63 2.53,8.64 2.82,9.52 0.2,0.6 0.28,1.02 0.48,1.63 0.21,0.62 0.41,0.96 0.43,1.68 -1.72,0 -3.25,1.54 -3.25,3.25 0,0.6 -0.02,1.16 -0.04,1.68l-10.03 -15.94c-0.21,-0.33 -0.52,-0.52 -0.98,-0.52 -0.59,0 -1.3,0.45 -1.3,0.97l0 4.87c0,0.15 0.04,0.29 0.12,0.41l11.04 17.54 -0.3 0.38 -7.62 -12.11c-0.54,-0.86 -1.22,-1.69 -2.05,-2.53 -0.48,-0.49 -0.99,-0.92 -1.52,-1.31l-6.38 -10.14c-0.23,-0.37 -0.66,-0.52 -1.4,-0.52 -0.39,0 -0.97,0.58 -0.97,0.97l0.03 0.05 -0.03 -0.05 0 4.71c0,0.15 0.04,0.29 0.12,0.42l0.02 0.03z"/>
   </g>
  </g>
  <path class="fil3" d="M85.57 11.59c40.86,0 73.97,33.12 73.97,73.97 0,40.86 -33.12,73.97 -73.97,73.97 -40.86,0 -73.97,-33.12 -73.97,-73.97 0,-40.86 33.12,-73.97 73.97,-73.97z"/>
  <g id="_105553210408864">
   <path class="fil4" d="M60.02 117.99c-2.39,0 -6.45,0.67 -8.45,1.62l0 -15.92 17.87 -3.09c5.34,-0.89 3.28,-0.97 9.1,-0.97 0.92,0 1.84,-0.01 2.77,-0.01 1.05,0 1.45,0.18 2.59,0.17 2.14,-0.01 3.22,0.11 4.76,0.76 2.51,1.05 4.82,3.87 4.82,6.71l-13.81 -0.16c-0.86,0.01 -1.54,-0.18 -2.09,-0.15 -1.67,0.08 -1.48,1 -1.48,1.77 0,1.48 4.13,0.97 5.69,0.97 2.25,0 4.49,-0.01 6.51,0.15 1.46,0.12 5.2,0.13 6.65,0.01 1.39,-0.11 0.67,-0.76 2,-1.25 0.89,-0.33 1.62,-0.57 2.5,-0.91l12.17 -4.4c1.65,-0.56 6.65,-2.54 7.69,-2.54 2.87,0 4.63,4.06 0.54,6.06 -3.52,1.73 -7.37,4.03 -10.83,5.74 -0.72,0.36 -1.12,0.62 -1.79,0.98 -3.88,2.09 -8.97,4.59 -12.67,6.66 -0.63,0.36 -0.99,0.58 -1.68,0.92 -3.8,1.88 -5.26,3.54 -10.48,2.09 -1.51,-0.42 -2.87,-0.72 -4.42,-1.1 -3.4,-0.85 -14.65,-4.13 -17.96,-4.13zm33.95 -29.08l0 1.14c0,1.73 -1.89,3.86 -3.57,3.9 0,2.24 -2.44,2.21 -2.44,0 -1.71,-0.04 -3.57,-2.26 -3.57,-4.06 0,-1.36 0.01,-1.62 1.46,-1.62 1.53,0 0.07,3.57 3.57,3.57 2.54,0 3.16,-4.37 0.12,-4.84 -1.55,-0.24 -3.31,-0.26 -4.57,-2.42 -0.97,-1.67 -0.81,-4.14 0.5,-5.62 0.52,-0.59 1.53,-1.34 2.48,-1.42 0,-2.49 2.44,-2.42 2.44,0 1.66,0.14 3.57,2.23 3.57,4.06 0,0.49 0.13,1.87 -1.26,1.72 -0.83,-0.09 -0.94,-0.56 -1.09,-1.32 -0.14,-0.69 -0.28,-1.18 -0.69,-1.58 -1.6,-1.58 -4.04,-0.46 -4.19,1.55 -0.1,1.28 0.85,2.41 2.05,2.54 1.61,0.18 2.57,0.31 3.52,1.19 0.75,0.7 1.66,1.83 1.66,3.21zm-12.02 -22.9c0,-1.58 -0.36,-3.74 0.81,-3.74 2.43,0 11.65,-0.23 13.32,0.16 0.16,0.71 0.69,4.39 -0.65,4.39l-12.67 0c-0.38,0 -0.81,-0.43 -0.81,-0.81zm-3.09 -19.17c0,0.63 2.53,8.64 2.82,9.52 0.2,0.6 0.28,1.02 0.48,1.63 0.21,0.62 0.41,0.96 0.43,1.68 -1.72,0 -3.25,1.54 -3.25,3.25 0,2.62 -0.45,4.4 1.46,5.69l-3.6 4.52c-4.74,6.32 -9.69,15.18 -9.56,23.58 0.01,0.85 0.19,1.36 -0.36,1.59l-15.91 2.77c-1.23,0.2 -2.58,0.25 -2.58,1.65l0 18.84c0,0.27 0.37,1.14 1.3,1.14 1.7,0 5.9,-1.95 9.42,-1.95 3.03,0 11.89,2.61 15.37,3.48l5.1 1.23 10.4 0c0.7,0 3.78,-1.81 4.6,-2.22 0.84,-0.41 1.41,-0.79 2.22,-1.19 5.05,-2.51 10.96,-5.98 15.92,-8.45l9.1 -4.87c3.24,-2.14 3.42,-6.4 0.85,-8.98 -0.65,-0.65 -0.71,-0.73 -1.61,-1.15 -3.43,-1.62 -7.18,1.29 -10.94,2.17 0,-1.03 0.16,-1.36 0.16,-2.44 0,-6.78 -1.8,-11.51 -4.55,-17.06 -0.58,-1.17 -1.29,-2.28 -1.98,-3.38 -0.37,-0.59 -0.61,-1 -1.01,-1.59 -1.47,-2.21 -3.03,-4.19 -4.67,-6.21 -0.45,-0.55 -0.95,-0.95 -1.11,-1.65 2.02,-0.54 2.62,-8.61 -1.79,-8.61 0.12,-1.49 3.74,-11.66 3.74,-12.99 0,-0.96 -1.41,-1.7 -2.28,-0.65 -2.77,3.31 -11.22,3.67 -14.94,0.82 -1.23,-0.94 -0.68,-1.3 -2.27,-1.3 -0.46,0 -0.97,0.68 -0.97,1.14z"/>
   <path class="fil4" d="M57.43 63.73c0,2.77 2.04,1.59 3.79,2.54 3.83,2.07 2.08,7.45 -0.87,7.69 -0.03,1.24 -1.11,1.68 -1.92,0.94 -0.45,-0.41 -0.22,-0.38 -0.45,-0.69 -0.57,-0.77 -3,-0.8 -3,-4.47 0,-0.59 1.91,-2.28 2.45,0.63 0.39,2.08 3.56,1.97 3.56,-0.47 0,-0.83 -0.64,-1.44 -1.3,-1.62 -1.43,-0.39 -4.71,-0.16 -4.71,-4.71 0,-1.62 1.18,-2.71 2.34,-3.35 1.36,-0.75 0.36,-1.69 1.89,-1.69 0.93,0 1.14,0.51 1.14,1.46 3.27,0.76 3.94,5.2 1.95,5.2 -1.78,0 -0.86,-1.77 -1.91,-2.63 -1.19,-0.97 -2.96,-0.1 -2.96,1.17zm1.79 16.08c6.67,0 12.83,-5.75 12.83,-12.35 0,-4.18 -1,-6.92 -3.86,-9.79 -4.57,-4.59 -11.18,-4.85 -16.58,-1.23 -2.38,1.6 -4.38,4.79 -5.06,7.78 -0.64,2.81 -0.1,5.61 0.92,8 0.28,0.64 0.82,1.56 1.18,2.07 1.34,1.87 3.1,3.32 5.25,4.33 1.48,0.69 3.69,1.19 5.31,1.19z"/>
   <path class="fil4" d="M106.16 63.24c0,2.74 0.88,5.25 2.84,7.07 3.79,3.52 9,3.58 12.96,0.12 3.35,-2.93 3.91,-8.51 1.1,-12.39 -0.89,-1.22 -0.77,-1.01 -1.66,-1.75 -0.3,-0.25 -0.3,-0.26 -0.64,-0.49 -3.7,-2.52 -8.64,-2.02 -11.71,1.07 -1.44,1.45 -2.88,3.56 -2.88,6.38z"/>
   <path class="fil4" d="M48.65 49.6c0,2.02 -0.5,5.36 1.3,5.36 1.85,0 1.3,-2.56 1.3,-5.52 0,-1.81 -2.6,-1.71 -2.6,0.16z"/>
   <path class="fil4" d="M67.01 49.11l0 4.87c0,1.16 2.6,1.54 2.6,-0.49 0,-2.34 0.51,-5.36 -1.3,-5.36 -0.59,0 -1.3,0.45 -1.3,0.97z"/>
   <path class="fil4" d="M57.91 46.68l0 4.71c0,1.17 2.6,1.59 2.6,-0.32 0,-4.12 0.5,-5.36 -1.62,-5.36 -0.39,0 -0.97,0.58 -0.97,0.97z"/>
   <path class="fil4" d="M114.12 47.49c0,2.11 -0.52,5.02 1.42,4.81 1.62,-0.18 1.18,-2.59 1.18,-4.64 0,-1.71 -2.6,-1.79 -2.6,-0.16z"/>
   <path class="fil4" d="M106.81 49.44c0,2.83 -0.52,4.87 1.3,4.87 1.76,0 1.3,-2.18 1.3,-4.55 0,-1.91 -2.6,-1.49 -2.6,-0.32z"/>
   <path class="fil4" d="M121.59 49.6c0,3.13 -0.51,4.71 1.46,4.71 1.5,0 1.14,-2.96 1.14,-4.22 0,-2.23 -2.6,-2.03 -2.6,-0.49z"/>
  </g>
 </g>
</svg>
