<?xml version="1.0" encoding="UTF-8"?>
<!DOCTYPE svg PUBLIC "-//W3C//DTD SVG 1.1//EN" "http://www.w3.org/Graphics/SVG/1.1/DTD/svg11.dtd">
<!-- Creator: CorelDRAW -->
<svg xmlns="http://www.w3.org/2000/svg" xml:space="preserve" width="27.1872mm" height="27.1872mm" version="1.1" style="shape-rendering:geometricPrecision; text-rendering:geometricPrecision; image-rendering:optimizeQuality; fill-rule:evenodd; clip-rule:evenodd"
viewBox="0 0 574.67 574.67"
 xmlns:xlink="http://www.w3.org/1999/xlink"
 xmlns:xodm="http://www.corel.com/coreldraw/odm/2003">
 <defs>
  <style type="text/css">
   <![CDATA[
    .fil3 {fill:none}
    .fil2 {fill:#32804D}
    .fil0 {fill:#45B97B}
    .fil4 {fill:white}
    .fil1 {fill:url(#id1)}
   ]]>
  </style>
    <clipPath id="id0">
     <path d="M287.33 38.93c137.19,0 248.41,111.22 248.41,248.41 0,137.19 -111.22,248.41 -248.41,248.41 -137.19,0 -248.41,-111.22 -248.41,-248.41 0,-137.19 111.22,-248.41 248.41,-248.41z"/>
    </clipPath>
  <radialGradient id="id1" gradientUnits="userSpaceOnUse" gradientTransform="matrix(1 -0 0.0327093 1.23027 -9 -66)" cx="287.33" cy="287.33" r="248.41" fx="287.33" fy="287.33">
   <stop offset="0" style="stop-opacity:1; stop-color:#88BF40"/>
   <stop offset="1" style="stop-opacity:1; stop-color:#248C55"/>
  </radialGradient>
 </defs>
 <g id="Layer_x0020_1">
  <metadata id="CorelCorpID_0Corel-Layer"/>
  <g id="_105553210478272">
   <path class="fil0" d="M287.33 0c158.69,0 287.33,128.65 287.33,287.33 0,158.69 -128.65,287.33 -287.33,287.33 -158.69,0 -287.33,-128.65 -287.33,-287.33 0,-158.69 128.65,-287.33 287.33,-287.33zm0 16.88c149.37,0 270.45,121.09 270.45,270.45 0,149.37 -121.09,270.45 -270.45,270.45 -149.37,0 -270.45,-121.09 -270.45,-270.45 0,-149.37 121.09,-270.45 270.45,-270.45z"/>
   <path class="fil1" d="M287.33 38.93c137.19,0 248.41,111.22 248.41,248.41 0,137.19 -111.22,248.41 -248.41,248.41 -137.19,0 -248.41,-111.22 -248.41,-248.41 0,-137.19 111.22,-248.41 248.41,-248.41z"/>
   <g style="clip-path:url(#id0)">
    <g>
     <path id="_1" class="fil2" d="M487.12 386.46l24.42 30.37c1.24,1.55 3.66,2.08 5.7,2.75 0.22,0.07 0.45,0.15 0.68,0.23l12.94 16.09c0.72,0.9 1.5,1.45 2.33,1.45 8.1,0 5.43,-11.41 9.34,-14.83 0.61,-0.53 6.89,-2.49 8.3,-2.94 5.81,-1.89 8.11,-4.96 5.97,-7.62l-32.37 -40.25c0.89,-3.63 1.65,-7.14 3.11,-8.6 3.18,-3.17 19.15,-3.3 19.15,-10.09 0,-1.19 -0.39,-2.18 -1.06,-3.01l-151.52 -188.39c-1.55,-1.93 -4.6,-3.01 -7.83,-3.9l-16.84 -20.93c-0.7,-0.87 -1.49,-1.39 -2.39,-1.39 -6.09,0 -5.59,1.87 -7.66,8.09 -4.42,13.28 -1.36,10.2 -14.2,14.48 -3.46,1.15 -8.51,1.63 -8.51,6.11 0,1.65 0.39,2.79 1.06,3.62 12.55,15.6 25.09,31.2 37.64,46.8 -0.9,2.64 -1.59,3.23 -4.44,4.16l-39.36 -48.94c-3.8,-4.72 -9.18,-7.88 -15.7,-7.88 -0.55,0 -1.08,0.01 -1.57,0.03l-14.25 -17.72c-0.02,-0.03 -0.04,-0.05 -0.06,-0.07l-0.08 -0.11c-4.88,-6.07 -14.71,-10.25 -22.27,-10.25 -12.98,0 -23.79,2.88 -33.56,10.86 -1.3,1.06 -2.25,1.69 -3.42,2.77 -6.5,6.02 -15.31,18.09 -15.31,30.23l-6.87 -8.31c-1.35,-1.31 -2.49,-2.12 -3.98,-3.33 -1.41,-1.15 -3.07,-2.24 -4.71,-3.16 -39.35,-21.97 -77.57,10.91 -64.25,29.95 0.1,0.15 0.21,0.3 0.31,0.45 0.1,0.15 0.2,0.3 0.31,0.44l4.92 6.11c-4.78,0.72 -12.6,3.02 -16.1,5.54 -12.04,8.65 -11.44,26.03 -3.08,36.42l19.8 24.62 0 68.69c0,10.96 -1.52,30.76 1.37,39.11 0.85,2.45 2.11,4.72 3.73,6.74l151.52 188.39c4.49,5.58 11.77,9.25 20.76,9.25l50.04 0 0 -5.6 4.5 5.6 36.55 0c1.29,0 1.68,-0.39 1.68,-1.69l0 -3.2 3.94 4.89 50.61 0c15.19,0 25.86,-10.67 25.86,-25.87l0 -112.45c0,-4.73 -1.18,-7.99 -3.27,-10.79 -0.04,-0.06 -0.09,-0.12 -0.14,-0.18l-25.26 -31.41c2.3,-0.77 4.32,-1.6 5.74,-2.48 3.6,-2.25 6.15,-5.34 7.77,-8.85z"/>
    </g>
   </g>
   <path class="fil3" d="M287.33 38.93c137.19,0 248.41,111.22 248.41,248.41 0,137.19 -111.22,248.41 -248.41,248.41 -137.19,0 -248.41,-111.22 -248.41,-248.41 0,-137.19 111.22,-248.41 248.41,-248.41z"/>
   <g>
    <path class="fil4" d="M180.95 173.62c12.25,0 22.09,3.37 28.11,12.37 -11.93,0 -24.94,1.56 -37.45,-0.23 -3.67,-0.52 -6.76,-1.77 -9.78,-2.02 0.26,-3.17 4.74,-6.02 7.29,-7.33 2.75,-1.41 7.62,-2.79 11.83,-2.79zm62.41 3.94c1.09,-13.15 17.4,-25.87 29.24,-25.87 4.05,0 9.45,-0.4 11.81,2.81 -6.6,9 -32.61,19.01 -41.04,23.05zm-17.99 0l-6.87 -8.31c-1.35,-1.31 -2.49,-2.12 -3.98,-3.33 -1.41,-1.14 -3.07,-2.24 -4.71,-3.16 -43.44,-24.25 -85.55,18.35 -58.42,35.36l2.01 1.36c-4.02,0.09 -14.26,2.78 -18.41,5.77 -17.85,12.83 -7.92,44.84 13.91,44.84 4.26,0 46.36,-10.63 55.43,-12.61 11.07,-2.41 8.02,0.74 2.72,-23.61l-4.74 -21.13c1.63,-0.78 2.31,-0.34 3.94,-1.12l10.12 42.73 42.17 -9.56 -10.12 -43.29c2.47,-0.05 1.75,-0.38 3.94,-0.56l10.12 42.73c14.83,-3.46 29.07,-7.07 44.18,-10.36 5.9,-1.28 16.64,-3.55 21.17,-6.39 18.5,-11.57 9.28,-45.11 -11.93,-45.11 -8.98,0 -10.45,2.32 -16.31,2.81 1.4,-5.25 3.37,-2.52 3.37,-12.93 0,-9.98 -14.83,-17.99 -25.3,-17.99 -12.98,0 -23.79,2.88 -33.56,10.86 -1.3,1.06 -2.25,1.69 -3.41,2.77 -6.5,6.02 -15.32,18.09 -15.32,30.23z"/>
    <path class="fil4" d="M274.29 390.09l50.6 0c15.2,0 25.87,-10.67 25.87,-25.87l0 -112.45c0,-4.73 -1.18,-7.99 -3.27,-10.79 -1.61,-2.16 -5.98,-4.96 -9.66,-4.96l-63.54 0 0 154.06z"/>
    <path class="fil4" d="M151.71 254.02c0,26.99 0,53.98 0,80.97 0,10.96 -1.52,30.76 1.37,39.11 3.18,9.2 12.26,15.99 24.49,15.99l50.04 0 0 -154.06c-2.05,0.98 -6.45,1.62 -9,2.24l-47.67 11.37c-6.23,1.47 -12.79,2.88 -19.23,4.38z"/>
    <path class="fil4" d="M232.12 390.09l36.55 0c1.3,0 1.69,-0.39 1.69,-1.69l0 -152.38 -38.24 0 0 154.06z"/>
    <path class="fil4" d="M336.7 164.06c0,5.23 3.89,5.33 8.36,6.82l10.69 3.93c3.21,3.68 3.15,19.05 10.19,19.05 7.13,0 6.55,-15.61 10.09,-19.15 3.18,-3.18 19.15,-3.3 19.15,-10.09 0,-7.12 -13.79,-6.88 -18.56,-10.11 -3.05,-2.07 -4.36,-19.13 -9.55,-19.13 -6.09,0 -5.59,1.87 -7.66,8.09 -4.42,13.28 -1.36,10.2 -14.2,14.48 -3.46,1.15 -8.51,1.63 -8.51,6.11z"/>
    <path class="fil4" d="M359.19 225.91c0,3.65 3.64,4.33 6.53,5.28 2.48,0.81 6.23,2.39 8.65,2.6 0.05,0.57 3.06,15.18 7.31,15.18 8.1,0 5.43,-11.41 9.34,-14.83 0.61,-0.53 6.89,-2.49 8.3,-2.94 8.29,-2.7 9.44,-7.79 0.71,-10.7 -1.69,-0.56 -8.03,-2.31 -8.84,-2.97 -2.63,-2.14 -2.93,-15.23 -8.39,-15.23 -4.09,0 -4.6,3.32 -5.55,6.25 -3.42,10.5 -1.3,8.38 -11.81,11.81 -2.93,0.96 -6.25,1.47 -6.25,5.55z"/>
   </g>
  </g>
 </g>
</svg>
